<svg version="1.1" viewBox="0.0 0.0 960.0 540.0" fill="none" stroke="none" stroke-linecap="square" stroke-miterlimit="10" xmlns:xlink="http://www.w3.org/1999/xlink" xmlns="http://www.w3.org/2000/svg"><clipPath id="g2d82d9e714e_0_0.0"><path d="m0 0l960.0 0l0 540.0l-960.0 0l0 -540.0z" clip-rule="nonzero"/></clipPath><g clip-path="url(#g2d82d9e714e_0_0.0)"><path fill="#373ae0" d="m0 0l960.0 0l0 540.0l-960.0 0z" fill-rule="evenodd"/><path fill="#000000" fill-opacity="0.0" d="m201.44882 219.68208l557.1024 0l0 46.866135l-557.1024 0z" fill-rule="evenodd"/><path fill="#ffffff" d="m269.48883 247.91147l2.828125 -0.296875q0.234375 2.28125 1.03125 3.5625q0.796875 1.265625 2.28125 2.046875q1.5 0.765625 3.375 0.765625q2.671875 0 4.15625 -1.3125q1.484375 -1.3125 1.484375 -3.40625q0 -1.234375 -0.546875 -2.140625q-0.53125 -0.921875 -1.625 -1.5q-1.078125 -0.59375 -4.6875 -1.640625q-3.203125 -0.953125 -4.5625 -1.90625q-1.359375 -0.96875 -2.125 -2.453125q-0.75 -1.484375 -0.75 -3.34375q0 -3.359375 2.171875 -5.484375q2.171875 -2.140625 5.859375 -2.140625q2.53125 0 4.421875 1.0q1.890625 1.0 2.9375 2.875q1.0625 1.859375 1.125 4.390625l-2.875 0.265625q-0.234375 -2.703125 -1.625 -4.0q-1.390625 -1.3125 -3.890625 -1.3125q-2.546875 0 -3.890625 1.15625q-1.34375 1.140625 -1.34375 2.953125q0 1.671875 0.984375 2.59375q0.984375 0.921875 4.421875 1.875q3.359375 0.921875 4.71875 1.609375q2.078125 1.046875 3.125 2.78125q1.0625 1.71875 1.0625 4.125q0 2.375 -1.125 4.328125q-1.109375 1.953125 -3.03125 2.96875q-1.90625 1.015625 -4.609375 1.015625q-4.203125 0 -6.703125 -2.515625q-2.5 -2.53125 -2.59375 -6.859375zm21.312012 -4.59375q0 -7.078125 3.109375 -10.875q3.109375 -3.796875 7.75 -3.796875q3.015625 0 5.484375 1.703125q2.46875 1.6875 3.90625 4.921875q1.453125 3.234375 1.453125 7.71875q0 6.15625 -2.796875 10.015625q-3.078125 4.265625 -8.0625 4.265625q-5.015625 0 -8.078125 -4.375q-2.765625 -3.96875 -2.765625 -9.578125zm3.09375 0.0625q0 5.109375 2.25 7.9375q2.265625 2.828125 5.484375 2.828125q3.296875 0 5.53125 -2.84375q2.25 -2.859375 2.25 -8.390625q0 -3.5625 -1.15625 -6.375q-0.890625 -2.15625 -2.671875 -3.453125q-1.78125 -1.296875 -3.890625 -1.296875q-3.40625 0 -5.609375 2.84375q-2.1875 2.828125 -2.1875 8.75zm22.32602 13.421875l0 -27.671875l3.078125 0l11.921875 21.71875l0 -21.71875l2.875 0l0 27.671875l-3.078125 0l-11.90625 -21.75l0 21.75l-2.890625 0zm29.345398 0l0 -11.71875l-8.734375 -15.953125l3.65625 0l4.453125 8.34375q1.328125 2.46875 2.328125 4.6875q1.0 -2.171875 2.46875 -4.890625l4.40625 -8.140625l3.484375 0l-9.0625 15.953125l0 11.71875l-3.0 0zm23.032288 0l0 -27.671875l8.546875 0q3.03125 0 4.453125 0.53125q1.96875 0.71875 3.140625 2.671875q1.171875 1.9375 1.171875 4.765625q0 3.734375 -1.90625 6.09375q-1.90625 2.359375 -6.59375 2.359375l-5.8125 0l0 11.25l-3.0 0zm3.0 -14.515625l5.875 0q2.765625 0 4.046875 -1.25q1.296875 -1.265625 1.296875 -3.78125q0 -1.65625 -0.640625 -2.8125q-0.625 -1.171875 -1.53125 -1.609375q-0.890625 -0.4375 -3.234375 -0.4375l-5.8125 0l0 9.890625zm18.702637 14.515625l0 -27.671875l3.0 0l0 27.671875l-3.0 0zm24.345947 -9.703125l3.03125 0.921875q-1.0 4.671875 -3.5 6.96875q-2.5 2.28125 -6.09375 2.28125q-3.15625 0 -5.390625 -1.53125q-2.234375 -1.546875 -3.65625 -4.9375q-1.421875 -3.40625 -1.421875 -8.03125q0 -4.5625 1.421875 -7.71875q1.421875 -3.171875 3.859375 -4.78125q2.4375 -1.609375 5.4375 -1.609375q3.28125 0 5.640625 2.046875q2.359375 2.046875 3.296875 6.015625l-2.9375 0.84375q-1.515625 -5.78125 -6.0625 -5.78125q-2.265625 0 -3.921875 1.171875q-1.65625 1.15625 -2.65625 3.609375q-0.984375 2.453125 -0.984375 6.203125q0 5.6875 2.0 8.53125q2.0 2.84375 5.3125 2.84375q2.46875 0 4.25 -1.75q1.78125 -1.75 2.375 -5.296875zm12.595398 9.703125l0 -24.40625l-7.46875 0l0 -3.265625l17.984375 0l0 3.265625l-7.515625 0l0 24.40625l-3.0 0zm28.365875 -27.671875l3.03125 0l0 15.984375q0 4.03125 -0.796875 6.609375q-0.78125 2.5625 -2.84375 4.0625q-2.0625 1.484375 -5.25 1.484375q-4.5 0 -6.734375 -2.671875q-2.234375 -2.6875 -2.234375 -9.484375l0 -15.984375l3.0 0l0 15.96875q0 3.75 0.578125 5.4375q0.59375 1.671875 1.921875 2.5625q1.328125 0.875 3.234375 0.875q3.21875 0 4.65625 -1.8125q1.4375 -1.8125 1.4375 -7.0625l0 -15.96875zm8.048523 27.671875l0 -27.671875l10.0625 0q3.140625 0 4.640625 0.78125q1.515625 0.765625 2.46875 2.578125q0.96875 1.796875 0.96875 4.171875q0 3.140625 -1.640625 5.078125q-1.625 1.9375 -4.75 2.46875q1.265625 0.765625 1.9375 1.53125q1.328125 1.59375 2.359375 3.53125l3.953125 7.53125l-3.765625 0l-3.03125 -5.75q-1.75 -3.390625 -2.65625 -4.546875q-0.890625 -1.171875 -1.734375 -1.578125q-0.828125 -0.40625 -2.34375 -0.40625l-3.46875 0l0 12.28125l-3.0 0zm3.0 -15.453125l6.453125 0q2.109375 0 3.203125 -0.515625q1.09375 -0.515625 1.734375 -1.609375q0.65625 -1.09375 0.65625 -2.546875q0 -2.09375 -1.234375 -3.28125q-1.21875 -1.203125 -3.640625 -1.203125l-7.171875 0l0 9.15625zm19.954773 15.453125l0 -27.671875l16.390625 0l0 3.265625l-13.390625 0l0 8.46875l12.546875 0l0 3.25l-12.546875 0l0 9.421875l13.921875 0l0 3.265625l-16.921875 0zm20.062012 -8.890625l2.828125 -0.296875q0.234375 2.28125 1.03125 3.5625q0.796875 1.265625 2.28125 2.046875q1.5 0.765625 3.375 0.765625q2.671875 0 4.15625 -1.3125q1.484375 -1.3125 1.484375 -3.40625q0 -1.234375 -0.546875 -2.140625q-0.53125 -0.921875 -1.625 -1.5q-1.078125 -0.59375 -4.6875 -1.640625q-3.203125 -0.953125 -4.5625 -1.90625q-1.359375 -0.96875 -2.125 -2.453125q-0.75 -1.484375 -0.75 -3.34375q0 -3.359375 2.171875 -5.484375q2.171875 -2.140625 5.859375 -2.140625q2.53125 0 4.421875 1.0q1.890625 1.0 2.9375 2.875q1.0625 1.859375 1.125 4.390625l-2.875 0.265625q-0.234375 -2.703125 -1.625 -4.0q-1.390625 -1.3125 -3.890625 -1.3125q-2.546875 0 -3.890625 1.15625q-1.34375 1.140625 -1.34375 2.953125q0 1.671875 0.984375 2.59375q0.984375 0.921875 4.421875 1.875q3.359375 0.921875 4.71875 1.609375q2.078125 1.046875 3.125 2.78125q1.0625 1.71875 1.0625 4.125q0 2.375 -1.125 4.328125q-1.109375 1.953125 -3.03125 2.96875q-1.90625 1.015625 -4.609375 1.015625q-4.203125 0 -6.703125 -2.515625q-2.5 -2.53125 -2.59375 -6.859375zm47.06421 -0.8125l3.03125 0.921875q-1.0 4.671875 -3.5 6.96875q-2.5 2.28125 -6.09375 2.28125q-3.15625 0 -5.390625 -1.53125q-2.234375 -1.546875 -3.65625 -4.9375q-1.421875 -3.40625 -1.421875 -8.03125q0 -4.5625 1.421875 -7.71875q1.421875 -3.171875 3.859375 -4.78125q2.4375 -1.609375 5.4375 -1.609375q3.28125 0 5.640625 2.046875q2.359375 2.046875 3.296875 6.015625l-2.9375 0.84375q-1.515625 -5.78125 -6.0625 -5.78125q-2.265625 0 -3.921875 1.171875q-1.65625 1.15625 -2.65625 3.609375q-0.984375 2.453125 -0.984375 6.203125q0 5.6875 2.0 8.53125q2.0 2.84375 5.3125 2.84375q2.46875 0 4.25 -1.75q1.78125 -1.75 2.375 -5.296875zm6.595398 9.703125l0 -27.671875l3.0 0l0 24.40625l11.171875 0l0 3.265625l-14.171875 0zm15.3324585 0l8.71875 -27.671875l3.21875 0l9.296875 27.671875l-3.4375 0l-2.640625 -8.375l-9.484375 0l-2.484375 8.375l-3.1875 0zm6.546875 -11.359375l7.671875 0l-2.359375 -7.671875q-1.09375 -3.53125 -1.59375 -5.734375q-0.4375 2.65625 -1.234375 5.28125l-2.484375 8.125zm16.062012 2.46875l2.828125 -0.296875q0.234375 2.28125 1.03125 3.5625q0.796875 1.265625 2.28125 2.046875q1.5 0.765625 3.375 0.765625q2.671875 0 4.15625 -1.3125q1.484375 -1.3125 1.484375 -3.40625q0 -1.234375 -0.546875 -2.140625q-0.53125 -0.921875 -1.625 -1.5q-1.078125 -0.59375 -4.6875 -1.640625q-3.203125 -0.953125 -4.5625 -1.90625q-1.359375 -0.96875 -2.125 -2.453125q-0.75 -1.484375 -0.75 -3.34375q0 -3.359375 2.171875 -5.484375q2.171875 -2.140625 5.859375 -2.140625q2.53125 0 4.421875 1.0q1.890625 1.0 2.9375 2.875q1.0625 1.859375 1.125 4.390625l-2.875 0.265625q-0.234375 -2.703125 -1.625 -4.0q-1.390625 -1.3125 -3.890625 -1.3125q-2.546875 0 -3.890625 1.15625q-1.34375 1.140625 -1.34375 2.953125q0 1.671875 0.984375 2.59375q0.984375 0.921875 4.421875 1.875q3.359375 0.921875 4.71875 1.609375q2.078125 1.046875 3.125 2.78125q1.0625 1.71875 1.0625 4.125q0 2.375 -1.125 4.328125q-1.109375 1.953125 -3.03125 2.96875q-1.90625 1.015625 -4.609375 1.015625q-4.203125 0 -6.703125 -2.515625q-2.5 -2.53125 -2.59375 -6.859375zm21.140137 0l2.828125 -0.296875q0.234375 2.28125 1.03125 3.5625q0.796875 1.265625 2.28125 2.046875q1.5 0.765625 3.375 0.765625q2.671875 0 4.15625 -1.3125q1.484375 -1.3125 1.484375 -3.40625q0 -1.234375 -0.546875 -2.140625q-0.53125 -0.921875 -1.625 -1.5q-1.078125 -0.59375 -4.6875 -1.640625q-3.203125 -0.953125 -4.5625 -1.90625q-1.359375 -0.96875 -2.125 -2.453125q-0.75 -1.484375 -0.75 -3.34375q0 -3.359375 2.171875 -5.484375q2.171875 -2.140625 5.859375 -2.140625q2.53125 0 4.421875 1.0q1.890625 1.0 2.9375 2.875q1.0625 1.859375 1.125 4.390625l-2.875 0.265625q-0.234375 -2.703125 -1.625 -4.0q-1.390625 -1.3125 -3.890625 -1.3125q-2.546875 0 -3.890625 1.15625q-1.34375 1.140625 -1.34375 2.953125q0 1.671875 0.984375 2.59375q0.984375 0.921875 4.421875 1.875q3.359375 0.921875 4.71875 1.609375q2.078125 1.046875 3.125 2.78125q1.0625 1.71875 1.0625 4.125q0 2.375 -1.125 4.328125q-1.109375 1.953125 -3.03125 2.96875q-1.90625 1.015625 -4.609375 1.015625q-4.203125 0 -6.703125 -2.515625q-2.5 -2.53125 -2.59375 -6.859375zm22.718262 8.890625l0 -27.671875l3.0 0l0 27.671875l-3.0 0zm24.345947 -9.703125l3.03125 0.921875q-1.0 4.671875 -3.5 6.96875q-2.5 2.28125 -6.09375 2.28125q-3.15625 0 -5.390625 -1.53125q-2.234375 -1.546875 -3.65625 -4.9375q-1.421875 -3.40625 -1.421875 -8.03125q0 -4.5625 1.421875 -7.71875q1.421875 -3.171875 3.859375 -4.78125q2.4375 -1.609375 5.4375 -1.609375q3.28125 0 5.640625 2.046875q2.359375 2.046875 3.296875 6.015625l-2.9375 0.84375q-1.515625 -5.78125 -6.0625 -5.78125q-2.265625 0 -3.921875 1.171875q-1.65625 1.15625 -2.65625 3.609375q-0.984375 2.453125 -0.984375 6.203125q0 5.6875 2.0 8.53125q2.0 2.84375 5.3125 2.84375q2.46875 0 4.25 -1.75q1.78125 -1.75 2.375 -5.296875zm5.767273 0.8125l2.828125 -0.296875q0.234375 2.28125 1.03125 3.5625q0.796875 1.265625 2.28125 2.046875q1.5 0.765625 3.375 0.765625q2.671875 0 4.15625 -1.3125q1.484375 -1.3125 1.484375 -3.40625q0 -1.234375 -0.546875 -2.140625q-0.53125 -0.921875 -1.625 -1.5q-1.078125 -0.59375 -4.6875 -1.640625q-3.203125 -0.953125 -4.5625 -1.90625q-1.359375 -0.96875 -2.125 -2.453125q-0.75 -1.484375 -0.75 -3.34375q0 -3.359375 2.171875 -5.484375q2.171875 -2.140625 5.859375 -2.140625q2.53125 0 4.421875 1.0q1.890625 1.0 2.9375 2.875q1.0625 1.859375 1.125 4.390625l-2.875 0.265625q-0.234375 -2.703125 -1.625 -4.0q-1.390625 -1.3125 -3.890625 -1.3125q-2.546875 0 -3.890625 1.15625q-1.34375 1.140625 -1.34375 2.953125q0 1.671875 0.984375 2.59375q0.984375 0.921875 4.421875 1.875q3.359375 0.921875 4.71875 1.609375q2.078125 1.046875 3.125 2.78125q1.0625 1.71875 1.0625 4.125q0 2.375 -1.125 4.328125q-1.109375 1.953125 -3.03125 2.96875q-1.90625 1.015625 -4.609375 1.015625q-4.203125 0 -6.703125 -2.515625q-2.5 -2.53125 -2.59375 -6.859375z" fill-rule="nonzero"/><path fill="#000000" fill-opacity="0.0" d="m201.44882 276.89108l557.1024 0l0 16.15747l-557.1024 0z" fill-rule="evenodd"/><path fill="#ffffff" d="m431.91675 286.5817l1.546875 -0.171875q0.265625 1.828125 1.703125 1.828125q0.71875 0 1.125 -0.375q0.421875 -0.375 0.421875 -0.9375q0 -0.3125 -0.15625 -0.546875q-0.140625 -0.234375 -0.4375 -0.375q-0.28125 -0.140625 -1.40625 -0.484375q-1.015625 -0.3125 -1.484375 -0.671875q-0.46875 -0.359375 -0.75 -0.9375q-0.265625 -0.578125 -0.265625 -1.25q0 -0.78125 0.34375 -1.40625q0.359375 -0.625 0.984375 -0.9375q0.625 -0.328125 1.546875 -0.328125q1.375 0 2.140625 0.75q0.78125 0.75 0.828125 2.140625l-1.578125 0.078125q-0.109375 -0.765625 -0.453125 -1.0625q-0.34375 -0.3125 -0.984375 -0.3125q-0.625 0 -0.984375 0.265625q-0.34375 0.265625 -0.34375 0.671875q0 0.390625 0.3125 0.65625q0.3125 0.265625 1.4375 0.578125q1.203125 0.34375 1.734375 0.734375q0.53125 0.375 0.796875 0.984375q0.28125 0.59375 0.28125 1.453125q0 1.25 -0.765625 2.09375q-0.765625 0.84375 -2.390625 0.84375q-2.875 0 -3.203125 -3.28125zm7.3825684 -1.609375q0 -1.703125 0.5 -2.796875q0.5 -1.109375 1.3125 -1.640625q0.828125 -0.546875 1.984375 -0.546875q1.671875 0 2.71875 1.28125q1.0625 1.28125 1.0625 3.65625q0 2.390625 -1.109375 3.734375q-0.984375 1.1875 -2.671875 1.1875q-1.703125 0 -2.6875 -1.171875q-1.109375 -1.34375 -1.109375 -3.703125zm1.625 -0.0625q0 1.65625 0.625 2.484375q0.625 0.8125 1.546875 0.8125q0.9375 0 1.546875 -0.8125q0.609375 -0.828125 0.609375 -2.515625q0 -1.65625 -0.59375 -2.453125q-0.59375 -0.796875 -1.5625 -0.796875q-0.96875 0 -1.578125 0.8125q-0.59375 0.796875 -0.59375 2.46875zm12.208923 1.28125l1.515625 0.578125q-0.359375 1.609375 -1.1875 2.34375q-0.828125 0.734375 -2.046875 0.734375q-1.53125 0 -2.484375 -1.171875q-1.09375 -1.359375 -1.09375 -3.671875q0 -2.4375 1.109375 -3.8125q0.953125 -1.203125 2.5625 -1.203125q1.3125 0 2.203125 0.890625q0.625 0.640625 0.921875 1.90625l-1.5625 0.453125q-0.140625 -0.78125 -0.59375 -1.1875q-0.4375 -0.421875 -1.046875 -0.421875q-0.875 0 -1.421875 0.765625q-0.546875 0.75 -0.546875 2.484375q0 1.8125 0.53125 2.578125q0.546875 0.75 1.390625 0.75q0.625 0 1.078125 -0.484375q0.46875 -0.484375 0.671875 -1.53125zm2.8250427 3.5l0 -9.546875l1.578125 0l0 9.546875l-1.578125 0zm10.132935 0l-1.71875 0l-0.671875 -2.171875l-3.125 0l-0.65625 2.171875l-1.671875 0l3.046875 -9.546875l1.671875 0l3.125 9.546875zm-2.90625 -3.78125l-1.078125 -3.53125l-1.046875 3.53125l2.125 0zm3.7937927 3.78125l0 -9.46875l1.578125 0l0 7.859375l3.921875 0l0 1.609375l-5.5 0zm14.496216 -3.5l1.515625 0.578125q-0.359375 1.609375 -1.1875 2.34375q-0.828125 0.734375 -2.046875 0.734375q-1.53125 0 -2.484375 -1.171875q-1.09375 -1.359375 -1.09375 -3.671875q0 -2.4375 1.109375 -3.8125q0.953125 -1.203125 2.5625 -1.203125q1.3125 0 2.203125 0.890625q0.625 0.640625 0.921875 1.90625l-1.5625 0.453125q-0.140625 -0.78125 -0.59375 -1.1875q-0.4375 -0.421875 -1.046875 -0.421875q-0.875 0 -1.421875 0.765625q-0.546875 0.75 -0.546875 2.484375q0 1.8125 0.53125 2.578125q0.546875 0.75 1.390625 0.75q0.625 0 1.078125 -0.484375q0.46875 -0.484375 0.671875 -1.53125zm2.5594177 -1.21875q0 -1.703125 0.5 -2.796875q0.5 -1.109375 1.3125 -1.640625q0.828125 -0.546875 1.984375 -0.546875q1.671875 0 2.71875 1.28125q1.0625 1.28125 1.0625 3.65625q0 2.390625 -1.109375 3.734375q-0.984375 1.1875 -2.671875 1.1875q-1.703125 0 -2.6875 -1.171875q-1.109375 -1.34375 -1.109375 -3.703125zm1.625 -0.0625q0 1.65625 0.625 2.484375q0.625 0.8125 1.546875 0.8125q0.9375 0 1.546875 -0.8125q0.609375 -0.828125 0.609375 -2.515625q0 -1.65625 -0.59375 -2.453125q-0.59375 -0.796875 -1.5625 -0.796875q-0.96875 0 -1.578125 0.8125q-0.59375 0.796875 -0.59375 2.46875zm7.2089233 4.78125l0 -9.546875l1.53125 0l3.203125 6.375l0 -6.375l1.46875 0l0 9.546875l-1.578125 0l-3.15625 -6.21875l0 6.21875l-1.46875 0zm9.637543 0l0 -7.921875l-2.328125 0l0 -1.625l6.21875 0l0 1.625l-2.328125 0l0 7.921875l-1.5625 0zm4.9114685 0l0 -9.546875l5.8124695 0l0 1.625l-4.2343445 0l0 2.109375l3.9374695 0l0 1.609375l-3.9374695 0l0 2.59375l4.3749695 0l0 1.609375l-5.9530945 0zm7.304413 0l0 -9.546875l1.53125 0l3.203125 6.375l0 -6.375l1.46875 0l0 9.546875l-1.578125 0l-3.15625 -6.21875l0 6.21875l-1.46875 0zm9.637512 0l0 -7.921875l-2.328125 0l0 -1.625l6.21875 0l0 1.625l-2.328125 0l0 7.921875l-1.5625 0z" fill-rule="nonzero"/><path fill="#000000" fill-opacity="0.0" d="m222.83464 209.5853l514.3307 0" fill-rule="evenodd"/><path stroke="#ffffff" stroke-width="2.0" stroke-linejoin="round" stroke-linecap="butt" d="m222.83464 209.5853l514.3307 0" fill-rule="evenodd"/></g></svg>